<svg width="96" height="96" viewBox="0 0 96 96" fill="none" xmlns="http://www.w3.org/2000/svg">
  <rect width="96" height="96" rx="48" fill="#111111"/>
  <path d="M29 24H46C55 24 60.6 28.2 60.6 35.8C60.6 40.8 57.8 44.4 53.2 46.1C59.1 47.2 63 51.3 63 57.3C63 66.3 56.2 72 46 72H29V24ZM44.9 43.8C50.7 43.8 53.4 41.3 53.4 36.5C53.4 31.9 50.3 29.6 44.8 29.6H36V43.8H44.9ZM45.8 66.2C52.4 66.2 55.6 63.2 55.6 57.7C55.6 52.4 52 49.6 45.3 49.6H36V66.2H45.8Z" fill="white"/>
  <path d="M51 24H69V29.8H63.6V72H56.5V29.8H51V24Z" fill="white"/>
</svg>
